<svg width="141" height="32" viewBox="0 0 141 32" fill="none" xmlns="http://www.w3.org/2000/svg">
  <g clip-path="url(#clip0_13_23)">
    <path d="M0.501801 11.7528H20.9818V3.76245L0.501801 11.7528Z" fill="#FF9D28" />
    <path d="M20.9818 3.76242V32L30.6633 0L20.9818 3.76242Z" fill="#68C5ED" />
    <path d="M13.2459 11.7527L20.9818 31.9806V11.7527H13.2459Z" fill="#044D80" />
    <path d="M0.501801 11.7527L15.2381 16.9406L13.2459 11.7527H0.501801Z" fill="#E54747" />
    <path
      d="M135.242 18.8994H134.851C134.72 18.8899 134.59 18.8899 134.46 18.8994C133.994 18.8994 133.529 18.9963 133.063 19.0739C132.634 19.1359 132.219 19.2736 131.834 19.4812C131.495 19.671 131.197 19.9318 130.959 20.2473C130.715 20.5986 130.59 21.0255 130.606 21.4594C130.588 21.9658 130.746 22.4619 131.053 22.8557C131.248 23.0667 131.487 23.2286 131.752 23.3294C132.016 23.4302 132.299 23.4671 132.579 23.4376C132.932 23.4336 133.283 23.3781 133.622 23.2727C133.924 23.1873 134.212 23.0567 134.478 22.8848C134.693 22.7465 134.887 22.5767 135.055 22.3806C135.174 22.2397 135.246 22.063 135.26 21.8763L135.242 18.8994ZM138.854 22.303C138.771 23.4687 138.996 24.6358 139.505 25.6776C139.206 25.8109 138.894 25.9085 138.574 25.9685C138.267 26.0262 137.956 26.0586 137.643 26.0654C137.102 26.1008 136.563 25.9547 136.107 25.6485C135.748 25.3612 135.508 24.9412 135.437 24.4751C134.97 24.9736 134.409 25.3664 133.789 25.6291C133.003 25.9583 132.16 26.1135 131.313 26.0848C130.797 26.0854 130.284 26.0137 129.786 25.8715C129.281 25.7304 128.809 25.4829 128.399 25.1442C127.968 24.7859 127.618 24.3321 127.375 23.8157C127.103 23.1786 126.969 22.4864 126.984 21.7891C126.956 20.9351 127.195 20.0946 127.664 19.3939C128.126 18.7681 128.722 18.2634 129.405 17.92C130.118 17.5614 130.877 17.31 131.658 17.1733C132.391 17.0463 133.131 16.9589 133.873 16.9115C134.099 16.897 134.326 16.897 134.553 16.9115H135.149V16.3782C135.177 16.0817 135.141 15.7823 135.04 15.5031C134.94 15.2239 134.78 14.9725 134.571 14.7685C134.017 14.4013 133.364 14.2312 132.71 14.2836C131.971 14.2733 131.238 14.4115 130.55 14.6909C129.911 14.9742 129.289 15.298 128.688 15.6606C128.426 15.3285 128.215 14.9555 128.064 14.5551C127.934 14.2754 127.855 13.9729 127.832 13.663C127.843 13.5048 127.888 13.3511 127.963 13.2135C128.039 13.0758 128.144 12.9577 128.269 12.8679C128.635 12.5689 129.044 12.3301 129.479 12.16C130.05 11.9382 130.639 11.7694 131.239 11.6557C131.927 11.5285 132.625 11.4636 133.324 11.4618C134.191 11.4376 135.056 11.5454 135.893 11.7818C136.53 11.9578 137.118 12.2903 137.606 12.7515C138.049 13.2224 138.369 13.8031 138.537 14.4388C138.735 15.2102 138.829 16.0065 138.816 16.8048L138.854 22.303ZM120.533 13.1782C120.667 12.9748 120.813 12.7804 120.971 12.5963C121.175 12.3679 121.41 12.1718 121.669 12.0145C121.965 11.8417 122.277 11.6988 122.6 11.5879C122.941 11.4634 123.3 11.4042 123.661 11.4133C123.894 11.4133 124.127 11.4133 124.387 11.4618C124.625 11.5069 124.856 11.5818 125.076 11.6848C125.29 11.7692 125.474 11.9177 125.607 12.1115C125.749 12.3065 125.824 12.5455 125.821 12.7903C125.811 13.2976 125.706 13.7981 125.514 14.2642C125.34 14.7548 125.131 15.2313 124.89 15.6897C124.605 15.4412 124.293 15.2295 123.959 15.0594C123.599 14.9067 123.212 14.834 122.823 14.846C122.293 14.8236 121.774 15.0106 121.371 15.3697C121.184 15.5217 121.033 15.7158 120.928 15.9375C120.823 16.1591 120.768 16.4026 120.766 16.6497V26.1818H116.865V11.8012C116.977 11.7674 117.093 11.7511 117.21 11.7527H118.141C118.685 11.7373 119.225 11.8605 119.714 12.1115C119.917 12.2322 120.093 12.3954 120.233 12.5906C120.372 12.7858 120.471 13.009 120.524 13.246L120.533 13.1782ZM109.623 13.1782C109.757 12.9748 109.903 12.7804 110.061 12.5963C110.265 12.3679 110.5 12.1718 110.759 12.0145C111.055 11.8417 111.367 11.6988 111.69 11.5879C112.03 11.4634 112.39 11.4042 112.751 11.4133C112.984 11.4133 113.216 11.4133 113.468 11.4618C113.708 11.5054 113.943 11.5804 114.166 11.6848C114.376 11.7748 114.56 11.9222 114.696 12.1115C114.839 12.3065 114.914 12.5455 114.911 12.7903C114.9 13.2976 114.796 13.7981 114.603 14.2642C114.43 14.7548 114.221 15.2313 113.98 15.6897C113.694 15.4431 113.381 15.2317 113.049 15.0594C112.688 14.9083 112.302 14.8357 111.913 14.846C111.38 14.8259 110.86 15.0125 110.451 15.3697C110.268 15.5241 110.119 15.7189 110.016 15.9402C109.913 16.1615 109.858 16.4038 109.856 16.6497V26.1818H106.011V11.8012C106.123 11.7674 106.239 11.7511 106.355 11.7527H107.277C107.825 11.7373 108.368 11.8604 108.86 12.1115C109.061 12.234 109.237 12.3977 109.376 12.5927C109.515 12.7876 109.615 13.0099 109.67 13.246L109.623 13.1782ZM99.4761 17.2509C99.508 16.4502 99.3207 15.6565 98.9361 14.9624C98.7297 14.655 98.4485 14.4103 98.1213 14.2536C97.7941 14.0968 97.4327 14.0335 97.0743 14.0703C96.723 14.0552 96.3729 14.1233 96.0504 14.2695C95.728 14.4156 95.4415 14.6359 95.2125 14.9139C94.7112 15.5767 94.4626 16.4089 94.5143 17.2509H99.4761ZM98.1728 23.2145C98.5972 23.2232 99.0205 23.1677 99.4295 23.0497C99.7497 22.9478 100.061 22.8181 100.36 22.6618C100.624 22.5188 100.873 22.35 101.105 22.1576L101.664 21.6436C101.929 22.0029 102.169 22.3821 102.381 22.7782C102.592 23.119 102.72 23.5085 102.753 23.9127C102.737 24.1541 102.665 24.3878 102.544 24.5939C102.422 24.8 102.254 24.9722 102.055 25.0957C101.541 25.4723 100.967 25.7513 100.36 25.92C99.5324 26.1546 98.6772 26.2688 97.8191 26.2594C96.9322 26.258 96.0494 26.1341 95.1939 25.8909C94.3162 25.6577 93.5041 25.2109 92.8244 24.5871C92.1447 23.9634 91.6168 23.1806 91.2841 22.303C90.8327 21.1129 90.6204 19.839 90.6604 18.56C90.632 17.4686 90.819 16.3828 91.2096 15.3697C91.5426 14.5313 92.0404 13.7748 92.6711 13.1491C93.2752 12.5742 93.9844 12.1322 94.7564 11.8497C95.5186 11.5835 96.3169 11.446 97.1209 11.4424C98.0414 11.4165 98.9571 11.5881 99.8112 11.9466C100.499 12.2538 101.109 12.7255 101.589 13.3236C102.048 13.8905 102.387 14.5511 102.585 15.263C102.797 16.0222 102.9 16.8095 102.893 17.6V18.0169C102.906 18.1848 102.906 18.3534 102.893 18.5212V19.0254C102.906 19.1543 102.906 19.2844 102.893 19.4133H94.5236C94.5383 20.4093 94.8653 21.373 95.4545 22.1576C95.7957 22.5333 96.2142 22.8236 96.6786 23.0066C97.1429 23.1897 97.6411 23.2608 98.1356 23.2145H98.1728ZM80.9603 23.6024C80.8275 23.2044 80.7431 22.7907 80.7089 22.3709C80.6859 21.9381 80.6859 21.5043 80.7089 21.0715V7.43755C80.8482 7.42329 80.9885 7.42329 81.1279 7.43755H81.9843C82.2971 7.43413 82.6093 7.46665 82.9152 7.53452C83.2107 7.57816 83.49 7.70189 83.7251 7.89331C83.9802 8.08133 84.1878 8.33085 84.3302 8.62059C84.4512 8.96483 84.505 9.33076 84.4884 9.69695V11.7915H88.4448V14.7685H84.507V21.0424C84.507 22.4194 85.0377 23.0885 86.1082 23.0885C86.3573 23.0852 86.6048 23.0461 86.8436 22.9721C87.0764 22.8751 87.2905 22.7782 87.4767 22.6812C87.6695 22.5814 87.8481 22.4541 88.0073 22.303L88.3052 22.0412C88.5481 22.3925 88.7659 22.762 88.9568 23.1466C89.0963 23.4226 89.1758 23.7272 89.1895 24.0388C89.1881 24.1782 89.1603 24.3159 89.1075 24.4441C89.0548 24.5722 88.9783 24.6882 88.8823 24.7854C88.6464 25.0605 88.366 25.2902 88.0538 25.4642C87.6476 25.7027 87.2077 25.8729 86.7505 25.9685C86.2044 26.1011 85.645 26.1662 85.0842 26.1624C84.1289 26.2144 83.18 25.9715 82.3566 25.4642C81.7484 24.9792 81.2811 24.328 81.0068 23.583L80.9603 23.6024ZM74.0436 18.5309C74.0463 17.9813 73.9995 17.4326 73.904 16.8921C73.8172 16.4264 73.6601 15.978 73.4385 15.5636C73.2231 15.1987 72.9177 14.9007 72.5542 14.7006C72.1431 14.4704 71.68 14.3598 71.2137 14.3806C70.6287 14.3256 70.0442 14.4908 69.566 14.846C69.4259 14.9773 69.3131 15.1371 69.2346 15.3156C69.1562 15.494 69.1137 15.6874 69.1098 15.8836V22.1285C69.3441 22.364 69.6189 22.5515 69.9197 22.6812C70.3328 22.9058 70.7944 23.016 71.2602 23.0012C71.6818 23.0272 72.102 22.9303 72.4737 22.7213C72.8453 22.5124 73.1536 22.1996 73.3641 21.8182C73.8683 20.8052 74.1029 19.6702 74.0436 18.5309ZM68.9422 13.1006C69.3394 12.6471 69.8048 12.2639 70.32 11.966C71.0626 11.5611 71.8934 11.364 72.731 11.3939C73.4103 11.3893 74.0849 11.5108 74.7232 11.7527C75.3584 12.0087 75.9285 12.4135 76.3895 12.9357C76.9213 13.5638 77.3152 14.305 77.5439 15.1079C77.8746 16.1785 78.0288 17.2999 78 18.4242C78.0366 19.7091 77.8635 20.9912 77.488 22.2157C77.2231 23.0826 76.7817 23.8798 76.194 24.5527C75.7011 25.1058 75.0882 25.5281 74.4067 25.7842C73.7739 26.0236 73.1064 26.1482 72.4332 26.1527C71.9583 26.1553 71.4853 26.09 71.0275 25.9588C70.6719 25.8526 70.3285 25.7063 70.0035 25.5224C69.7696 25.3981 69.5508 25.2451 69.3518 25.0666C69.2502 24.9713 69.1596 24.8639 69.0819 24.7466V32H65.2279V11.8206C65.3455 11.8079 65.4641 11.8079 65.5817 11.8206C65.6934 11.8206 65.833 11.8206 65.9727 11.7721H66.5033C67.0524 11.7512 67.5992 11.8572 68.1044 12.0824C68.3101 12.187 68.49 12.3393 68.6304 12.5275C68.7707 12.7158 68.8679 12.935 68.9143 13.1685L68.9422 13.1006ZM58.3113 18.9188H57.9203C57.787 18.9091 57.6533 18.9091 57.52 18.9188C57.0545 18.9188 56.5891 19.0157 56.1329 19.0933C55.7035 19.1524 55.2874 19.2903 54.9041 19.5006C54.5615 19.6893 54.2603 19.9501 54.0198 20.2666C53.7832 20.6218 53.6625 21.0467 53.6753 21.4788C53.6587 21.9834 53.8137 22.4779 54.1129 22.8751C54.3095 23.0874 54.5501 23.2502 54.8163 23.351C55.0825 23.4518 55.3672 23.4881 55.6489 23.457C55.9843 23.4421 56.3162 23.3802 56.6356 23.2727C56.9389 23.1911 57.2279 23.0602 57.4921 22.8848C57.7103 22.7517 57.9054 22.5812 58.0692 22.3806C58.1894 22.2399 58.2643 22.0636 58.2833 21.8763L58.3113 18.9188ZM61.9418 22.303C61.8542 23.4691 62.0799 24.6375 62.5934 25.6776C62.2943 25.8097 61.9821 25.9073 61.6625 25.9685C61.3551 26.0257 61.0439 26.0581 60.7316 26.0654C60.1743 26.1137 59.6174 25.967 59.1491 25.6485C58.7897 25.3612 58.5497 24.9412 58.4788 24.4751C58.0115 24.9736 57.4506 25.3664 56.8311 25.6291C56.0447 25.9572 55.2016 26.1124 54.3549 26.0848C53.8391 26.0862 53.3255 26.0144 52.8282 25.8715C52.3208 25.7286 51.846 25.4813 51.4318 25.1442C51.0036 24.7849 50.6571 24.3312 50.4172 23.8157C50.137 23.1809 50 22.4876 50.0169 21.7891C49.9864 20.9334 50.2286 20.0912 50.7057 19.3939C51.1679 18.7681 51.764 18.2634 52.4465 17.92C53.156 17.5601 53.9116 17.3086 54.69 17.1733C55.4268 17.0462 56.1694 16.9588 56.9149 16.9115C57.1381 16.897 57.362 16.897 57.5852 16.9115H58.2182V16.3782C58.2472 16.0817 58.2102 15.7823 58.1101 15.5031C58.01 15.2239 57.8495 14.9725 57.641 14.7685C57.0858 14.4045 56.4335 14.2347 55.7792 14.2836C55.0439 14.274 54.3138 14.4123 53.6288 14.6909C52.988 14.9702 52.366 15.2942 51.767 15.6606C51.4983 15.3314 51.2844 14.9578 51.134 14.5551C50.9856 14.2493 50.8941 13.917 50.864 13.5757C50.8753 13.4165 50.9215 13.262 50.999 13.1242C51.0764 12.9864 51.1831 12.8689 51.3108 12.7806C51.6723 12.4794 52.0777 12.2404 52.5117 12.0727C53.0831 11.8521 53.6718 11.6834 54.2711 11.5685C54.9597 11.4423 55.6573 11.3774 56.3564 11.3745C57.2232 11.3491 58.089 11.4569 58.9257 11.6945C59.5647 11.8729 60.1546 12.205 60.6478 12.6642C61.0908 13.1351 61.4111 13.7158 61.5788 14.3515C61.7765 15.1229 61.8705 15.9192 61.858 16.7176L61.9418 22.303ZM47.4382 24.543C47.2663 24.7072 47.0792 24.8534 46.8797 24.9794C46.5574 25.1883 46.2178 25.3668 45.865 25.5127C45.3602 25.7105 44.8401 25.8629 44.3104 25.9685C43.6225 26.0995 42.9245 26.1644 42.2252 26.1624C40.8785 26.1825 39.5409 25.9289 38.2874 25.4157C37.2261 24.9353 36.2885 24.2011 35.5505 23.2727C34.833 22.3308 34.3101 21.2447 34.0145 20.0824C33.6603 18.7535 33.4879 17.3791 33.5025 16C33.4901 14.6113 33.6784 13.2285 34.0611 11.8982C34.3935 10.7073 34.954 9.599 35.7088 8.63998C36.4479 7.71039 37.385 6.97327 38.4457 6.48725C39.6678 5.95304 40.9839 5.69205 42.3089 5.72119C42.962 5.71867 43.6138 5.78364 44.2545 5.91513C44.7797 6.03561 45.2961 6.19439 45.7998 6.39028C46.1806 6.54597 46.5455 6.74088 46.889 6.9721C47.121 7.12209 47.3391 7.29414 47.5406 7.48604C47.7222 7.63617 47.8713 7.82452 47.9782 8.03877C48.099 8.25001 48.1632 8.49108 48.1644 8.73695C48.149 9.15884 48.0019 9.56399 47.7454 9.89089C47.4708 10.2845 47.159 10.6483 46.8145 10.9769C46.5818 10.7345 46.3305 10.5018 46.0512 10.2594C45.7621 10.0087 45.4503 9.78786 45.1203 9.59998C44.7413 9.40862 44.3453 9.25598 43.938 9.14422C43.4544 9.01523 42.9571 8.95007 42.4579 8.95028C41.6714 8.91362 40.8896 9.09544 40.1928 9.47713C39.4959 9.85882 38.909 10.4266 38.4922 11.1224C38.0899 11.7986 37.8062 12.5439 37.6544 13.3236C37.4896 14.1564 37.4054 15.0043 37.403 15.8545C37.4046 16.7369 37.4888 17.617 37.6544 18.4824C37.8202 19.2796 38.1366 20.0345 38.5853 20.703C38.9702 21.3607 39.504 21.91 40.1399 22.303C40.9059 22.7078 41.7577 22.9046 42.6161 22.8751C43.1033 22.8791 43.5888 22.8138 44.059 22.6812C44.4517 22.5377 44.8292 22.3525 45.1854 22.1285C45.5098 21.9526 45.8209 21.7517 46.1164 21.5273L46.7401 20.9745C46.8518 21.12 46.9728 21.2848 47.131 21.4788C47.2888 21.6647 47.4291 21.8661 47.55 22.08C47.6896 22.303 47.7827 22.5163 47.8944 22.7297C47.9541 22.9038 47.9825 23.0879 47.9782 23.2727C47.9837 23.4979 47.9358 23.7211 47.8385 23.9224C47.7131 24.1321 47.5664 24.3272 47.401 24.5042L47.4382 24.543Z"
      fill="#044D80" />
  </g>
  <defs>
    <clipPath id="clip0_13_23">
      <rect width="140.16" height="32" fill="white" transform="translate(0.23999)" />
    </clipPath>
  </defs>
</svg>