<svg width="30" height="32" viewBox="0 0 30 32" fill="none" xmlns="http://www.w3.org/2000/svg">
  <g clip-path="url(#clip0_13_41)">
    <path
      d="M20.8929 4.90342C21.0595 4.44729 21.3548 4.05441 21.7399 3.77649C22.1251 3.49856 22.5819 3.34861 23.0505 3.34637C23.8012 3.34637 24.3085 3.74092 24.3085 4.33274C24.3085 4.79774 24.1123 5.20637 23.1587 5.74183L22.6243 6.0166C21.632 6.46753 20.7812 7.19992 20.1691 8.13024C19.6789 9.05797 19.4448 10.109 19.4928 11.1668V11.5614H26.4593V9.44774H21.9277C22.0494 8.82069 22.4282 8.42615 23.3278 7.94706L24.1597 7.51024C25.7762 6.6366 26.4729 5.67842 26.4729 4.28342C26.4874 3.85012 26.3994 3.41974 26.2166 3.03024C26.0338 2.64075 25.7617 2.3041 25.4245 2.05001C24.7066 1.51424 23.8383 1.24167 22.9558 1.27501C22.2141 1.26649 21.4858 1.48183 20.859 1.89501C20.2583 2.27115 19.7763 2.82221 19.4725 3.48024V3.52251L20.8793 4.98796L20.8929 4.90342ZM25.8168 13.7102L25.8033 13.675H18.2415L14.4268 20.5796H21.9818L25.7627 27.4066L29.5774 20.5091L25.8168 13.7102Z"
      fill="#EC583C" />
    <path
      d="M20.7711 22.7848C19.7199 23.7199 18.4673 24.3767 17.12 24.6993C15.7728 25.0219 14.3706 25.0008 13.0329 24.6376C11.6951 24.2745 10.4614 23.5801 9.43658 22.6137C8.41178 21.6472 7.62627 20.4371 7.14685 19.0865C6.66743 17.7358 6.50831 16.2845 6.68301 14.856C6.8577 13.4276 7.36106 12.0642 8.15025 10.8819C8.93944 9.69955 9.99111 8.7333 11.2158 8.06531C12.4405 7.39733 13.8019 7.04737 15.1844 7.0452H15.2249L18.2618 0.471796H18.1807C17.1948 0.259882 16.191 0.151311 15.1844 0.147705C11.1483 0.147705 7.27745 1.81785 4.42349 4.79073C1.56953 7.76361 -0.0338135 11.7957 -0.0338135 16C-0.0338135 20.2043 1.56953 24.2364 4.42349 27.2092C7.27745 30.1821 11.1483 31.8522 15.1844 31.8522C18.4009 31.8615 21.5353 30.7946 24.1259 28.8086H24.1732L20.832 22.7284L20.7711 22.7848Z"
      fill="#EC583C" />
  </g>
  <defs>
    <clipPath id="clip0_13_41">
      <rect width="29.76" height="32" fill="white" />
    </clipPath>
  </defs>
</svg>