<svg width="101" height="24" viewBox="0 0 101 24" fill="none" xmlns="http://www.w3.org/2000/svg">
  <mask id="mask0_13_35" style="mask-type:luminance" maskUnits="userSpaceOnUse" x="2" y="0"
    width="97" height="24">
    <path d="M2.8768 0.47998H98.7232V23.52H2.8768V0.47998Z" fill="white" />
  </mask>
  <g mask="url(#mask0_13_35)">
    <path
      d="M98.4559 8.09952L98.1804 11.5459H96.8293C94.6719 11.5459 93.5512 13.3459 93.5512 15.072V22.8557H89.7284V8.09952H93.3494L93.4314 9.9408C94.1908 8.6784 95.5206 8.09952 97.1602 8.09952H98.4559ZM71.9507 22.8547H68.1261V15.0547C68.1261 13.4208 67.9906 11.3645 65.7852 11.3645C63.66 11.3645 62.814 12.9619 62.814 14.8205V22.8557H58.9893V8.0976H62.5347L62.6158 9.98496C63.3762 8.7216 64.7917 7.73856 66.8801 7.73856C70.7351 7.73856 71.9526 10.6051 71.9526 13.5888V22.8538L71.9507 22.8547ZM57.3194 19.4083L57.0521 22.7654C56.1342 23.0218 55.3195 23.1139 54.3334 23.1139C50.729 23.1139 49.683 21.3917 49.683 17.9299V3.93888H53.5095V8.10048H57.3157L57.0512 11.5459H53.5095V17.6323C53.5095 19.0214 53.8745 19.7712 55.2421 19.7712C55.9492 19.7733 56.6515 19.6509 57.3194 19.4093V19.4083ZM48.426 8.09952L48.1311 11.5459H47.0906C44.9377 11.5459 43.8677 13.344 43.8677 15.072V22.8557H40.0412V8.09952H43.6631L43.7396 9.9408C44.5036 8.6784 45.8326 8.09952 47.4749 8.09952H48.426ZM22.776 21.2208C20.1808 22.6666 17.5883 23.5008 14.1646 23.3971C7.81658 23.1955 3.23715 19.0896 3.23715 12.1555C3.23715 5.24928 7.86082 0.838079 14.1673 0.734399C17.3634 0.683519 20.2241 1.52832 22.4599 3.58368L19.767 6.4224C18.3827 5.1936 16.3478 4.47552 13.9148 4.59072C9.9464 4.78272 7.55485 7.78752 7.50232 11.9184C7.44979 16.3939 10.0846 19.4774 14.2023 19.5907C16.1405 19.6406 17.5293 19.3699 18.7302 18.8074V14.233H14.4503L14.7387 10.4813H22.7751L22.776 21.2208ZM88.0207 16.8797H77.5292C77.8287 18.7651 79.2516 19.8998 81.023 19.9507C82.7463 19.9987 83.7094 19.4573 84.9702 18.1286L87.4668 20.111C85.6918 22.3872 83.5629 23.2157 81.1382 23.2157C76.8711 23.2157 73.676 20.1091 73.676 15.4771C73.676 10.8499 76.8555 7.73952 80.9787 7.73952C85.5222 7.73952 88.0197 10.6061 88.0197 15.695L88.0207 16.8797ZM84.1868 13.7942C84.0698 11.9299 82.7288 10.751 80.8829 10.8269C79.024 10.8998 77.7863 12.1613 77.5301 13.7942H84.1868ZM37.6331 13.1923V22.8547H34.2601L34.1771 21.4003C33.1412 22.7347 31.4612 23.2157 29.7313 23.2157C27.1259 23.2157 24.6653 21.8774 24.6137 18.7613C24.5362 13.8634 29.9055 13.5149 33.2785 13.5149H33.9522V13.3219C33.9522 11.7014 32.9237 10.8259 30.9856 10.8259C29.5949 10.8259 28.2226 11.4077 27.207 12.3994L24.9998 10.0627C27.0034 8.37024 29.089 7.73952 31.3109 7.73952C35.6987 7.73952 37.6331 9.85152 37.6331 13.1923ZM33.9522 16.4198H33.4205C31.6086 16.4237 28.4272 16.5168 28.4392 18.4896C28.4567 21.2698 33.9522 20.3866 33.9522 17.0342V16.4198Z"
      fill="#182954" />
  </g>
</svg>