<svg width="140" height="27" viewBox="0 0 140 27" fill="none" xmlns="http://www.w3.org/2000/svg">
  <mask id="mask0_13_70" style="mask-type:luminance" maskUnits="userSpaceOnUse" x="1" y="0"
    width="139" height="27">
    <path d="M1.2767 0.0924683H139.523V26.9075H1.2767V0.0924683Z" fill="white" />
  </mask>
  <g mask="url(#mask0_13_70)">
    <path
      d="M35.805 10.4759L26.5224 0.809527C26.3727 0.662955 26.1749 0.58136 25.9694 0.58136C25.764 0.58136 25.5662 0.662955 25.4165 0.809527L23.5935 2.70843L31.0512 10.4769C31.1242 10.5523 31.1821 10.642 31.2217 10.7409C31.2612 10.8397 31.2815 10.9458 31.2815 11.0529C31.2815 11.16 31.2612 11.266 31.2217 11.3649C31.1821 11.4637 31.1242 11.5535 31.0512 11.6289L23.3838 19.6158L25.2067 21.5147C25.3565 21.6613 25.5542 21.7429 25.7597 21.7429C25.9652 21.7429 26.1629 21.6613 26.3127 21.5147L35.805 11.6289C35.9457 11.4729 36.024 11.2669 36.024 11.0529C36.024 10.8388 35.9457 10.6328 35.805 10.4769V10.4759Z"
      fill="#009C9C" />
    <path
      d="M19.9934 1.50967L19.3193 0.807513C19.1696 0.660941 18.9718 0.579346 18.7663 0.579346C18.5608 0.579346 18.3631 0.660941 18.2133 0.807513L16.3885 2.70741L17.5993 3.96871L19.9753 6.44563L22.3493 3.96871L19.9915 1.51066L19.9924 1.50967H19.9934ZM19.7665 15.8736L17.3944 18.3495L16.1835 19.6108L18.0065 21.5097C18.1561 21.6565 18.3539 21.7383 18.5594 21.7383C18.765 21.7383 18.9628 21.6565 19.1124 21.5097L19.7836 20.8076L22.1596 18.3326L19.7665 15.8736Z"
      fill="#40E3E3" />
    <path
      d="M23.8481 10.4758C23.9888 10.6318 24.0671 10.8378 24.0671 11.0518C24.0671 11.2659 23.9888 11.4719 23.8481 11.6279L19.7674 15.8736L22.1453 18.3505L28.6009 11.6239C28.6738 11.5484 28.7316 11.4587 28.7711 11.3598C28.8105 11.2609 28.8309 11.1549 28.8309 11.0479C28.8309 10.9408 28.8105 10.8348 28.7711 10.736C28.7316 10.6371 28.6738 10.5473 28.6009 10.4718L22.3712 3.98657L19.9934 6.4615L23.8481 10.4758Z"
      fill="#1ABAB8" />
    <path
      d="M8.70954 10.7072L15.1661 3.98161L12.7892 1.50469L12.1123 0.808489C11.9626 0.661918 11.7648 0.580322 11.5593 0.580322C11.3538 0.580322 11.1561 0.661918 11.0063 0.808489L1.50546 10.7072C1.43247 10.7827 1.37454 10.8724 1.335 10.9712C1.29547 11.0701 1.27512 11.1762 1.27512 11.2832C1.27512 11.3903 1.29547 11.4964 1.335 11.5953C1.37454 11.6941 1.43247 11.7838 1.50546 11.8593L10.787 21.5256C10.9368 21.6722 11.1346 21.7538 11.34 21.7538C11.5455 21.7538 11.7433 21.6722 11.893 21.5256L12.5747 20.8235L14.9526 18.3485L8.70858 11.8583C8.63571 11.7828 8.57788 11.693 8.53842 11.5942C8.49895 11.4953 8.47864 11.3893 8.47864 11.2823C8.47864 11.1752 8.49895 11.0692 8.53842 10.9703C8.57788 10.8715 8.63571 10.7817 8.70858 10.7062L8.70954 10.7072Z"
      fill="#87F0F0" />
    <path
      d="M15.9127 10.7073L18.7663 7.73973L16.3885 5.2638L15.1776 4.0025L8.72296 10.7281C8.64997 10.8035 8.59204 10.8933 8.5525 10.9921C8.51297 11.091 8.49261 11.197 8.49261 11.3041C8.49261 11.4112 8.51297 11.5173 8.5525 11.6161C8.59204 11.715 8.64997 11.8047 8.72296 11.8802L14.9402 18.3496L16.1511 17.0883L18.528 14.6113L15.8965 11.8762C15.7556 11.7203 15.6771 11.5143 15.6771 11.3002C15.6771 11.0861 15.7556 10.88 15.8965 10.7241"
      fill="#40E3E3" />
    <path
      d="M15.9127 11.8593L18.5442 14.5944L21.393 11.6279C21.466 11.5524 21.5239 11.4627 21.5635 11.3638C21.603 11.265 21.6233 11.1589 21.6233 11.0518C21.6233 10.9447 21.603 10.8387 21.5635 10.7398C21.5239 10.641 21.466 10.5512 21.393 10.4758L18.7654 7.73969L15.9127 10.7062C15.7715 10.8622 15.6929 11.0684 15.6929 11.2828C15.6929 11.4971 15.7715 11.7033 15.9127 11.8593Z"
      fill="#17CFCF" />
    <path
      d="M43.2465 8.42498C43.2734 7.33078 43.4824 6.24974 43.8643 5.23002C44.222 4.29052 44.773 3.44405 45.4784 2.75012C46.2332 2.03289 47.1223 1.48612 48.0899 1.14419C49.2615 0.743736 50.4896 0.552017 51.7224 0.577106C53.0949 0.531293 54.4634 0.753618 55.7573 1.23259C56.6853 1.58931 57.541 2.1239 58.2801 2.80872C58.8457 3.33318 59.2947 3.97985 59.5958 4.70365C59.8137 5.23235 59.9575 5.7909 60.0229 6.36221C60.0343 6.46719 60.0212 6.57349 59.9847 6.67206C59.9482 6.77063 59.8893 6.85854 59.8132 6.9283C59.663 7.07042 59.4669 7.14842 59.264 7.1468H56.9968C56.8196 7.15576 56.6451 7.09951 56.5038 6.98789C56.3945 6.89586 56.3052 6.78078 56.2416 6.65022C56.1463 6.47841 56.0481 6.30659 55.9461 6.13776C55.7383 5.82428 55.4822 5.54876 55.1881 5.32238C54.7743 5.0021 54.3175 4.7471 53.8323 4.5656C53.1571 4.32106 52.4446 4.20729 51.73 4.22991C50.5064 4.16646 49.3051 4.58842 48.3683 5.41077C47.946 5.81287 47.6085 6.30189 47.3771 6.8469C47.1457 7.3919 47.0254 7.98101 47.0239 8.57694C46.9837 9.36909 46.965 10.1623 46.9677 10.9555C46.9677 11.7997 46.9677 12.5942 47.0249 13.3341C47.0764 14.949 47.5292 16.1209 48.3692 16.8479C49.3264 17.6165 50.5154 18.0039 51.7224 17.9404C52.3637 17.9458 53.0031 17.8671 53.6254 17.706C54.1708 17.5669 54.6818 17.3087 55.1242 16.9502C55.5573 16.5805 55.8943 16.1034 56.1043 15.5628C56.3544 14.8932 56.474 14.1785 56.4562 13.4603V13.212H53.0381C52.9383 13.2138 52.8392 13.1938 52.7472 13.1533C52.6552 13.1127 52.5725 13.0525 52.5042 12.9766C52.4331 12.9055 52.3767 12.8201 52.3385 12.7254C52.3003 12.6308 52.2811 12.529 52.2821 12.4264V10.3527C52.284 10.1442 52.3642 9.94473 52.5055 9.79701C52.6468 9.64928 52.838 9.56498 53.0381 9.56214H59.4938C59.6939 9.56525 59.885 9.64979 60.0261 9.79771C60.1672 9.94562 60.2472 10.1452 60.2489 10.3537V13.5606C60.2608 14.6602 60.0806 15.7529 59.7169 16.7853C59.3669 17.7411 58.8149 18.6026 58.1018 19.3059C57.3386 20.0568 56.4309 20.6299 55.4389 20.9873C53.0228 21.775 50.4334 21.775 48.0174 20.9873C47.0535 20.6555 46.1697 20.1111 45.426 19.3914C44.7285 18.6801 44.1884 17.8189 43.8433 16.8678C43.4686 15.8364 43.2643 14.7464 43.2388 13.644C43.2388 13.2745 43.2064 12.8673 43.1988 12.4214C43.1902 11.9755 43.1988 11.5127 43.1988 11.0469V9.67635C43.1988 9.22646 43.2226 8.83515 43.2388 8.44882L43.2465 8.42498ZM68.8774 9.33272C68.4031 9.31876 67.9309 9.40316 67.4882 9.58101C67.1308 9.7279 66.8036 9.94466 66.5243 10.2196C66.271 10.4697 66.0655 10.7676 65.9189 11.0976C65.7893 11.3886 65.701 11.6977 65.6567 12.0152H71.9846C71.9442 11.7028 71.874 11.3954 71.7748 11.0976C71.67 10.7698 71.4974 10.4709 71.2695 10.2196C71.0098 9.93931 70.6945 9.72139 70.3456 9.58101C69.8766 9.39874 69.3777 9.31437 68.8774 9.33272ZM62.0165 13.7085C62.0095 12.6624 62.1706 11.6225 62.4932 10.6318C62.7866 9.70495 63.2528 8.84766 63.8652 8.10916C64.4678 7.39675 65.2075 6.82424 66.0362 6.42875C66.9242 6.01533 67.8876 5.80729 68.8602 5.81895C69.8319 5.80567 70.7951 6.00883 71.6852 6.41485C72.519 6.79341 73.2688 7.34724 73.8876 8.04163C74.495 8.72666 74.967 9.52947 75.2768 10.4043C75.6057 11.3141 75.7725 12.2784 75.7687 13.2507V14.5617C75.7658 14.7704 75.6849 14.9697 75.5432 15.1173C75.4015 15.2649 75.2102 15.3491 75.0098 15.3522H65.6567C65.6472 15.7624 65.7368 16.1696 65.9189 16.5341C66.0972 16.8638 66.3422 17.1508 66.6378 17.3743C66.9476 17.6126 67.2976 17.7914 67.6694 17.8996C68.0641 18.0139 68.4712 18.0715 68.8802 18.0715C69.3726 18.0863 69.8642 18.0227 70.338 17.8828C70.6694 17.7782 70.9815 17.616 71.2609 17.4031C71.4183 17.2769 71.588 17.1697 71.7663 17.0803C71.936 17.0137 72.1171 16.983 72.2992 16.9909H74.5379C74.7432 16.9938 74.9396 17.0784 75.087 17.2273C75.1615 17.2961 75.2193 17.3822 75.2557 17.4787C75.2922 17.5752 75.3063 17.6792 75.2968 17.7824C75.2341 18.1634 75.085 18.5233 74.862 18.8322C74.5342 19.3248 74.1241 19.7521 73.6512 20.0935C73.0305 20.5434 72.3507 20.898 71.6328 21.1453C70.7423 21.4474 69.8088 21.5892 68.8726 21.5644C67.9043 21.5759 66.9437 21.3833 66.0486 20.9983C65.2139 20.6386 64.4665 20.09 63.8605 19.3923C63.249 18.6627 62.7829 17.8136 62.4894 16.8946C62.1608 15.865 61.9997 14.7855 62.0127 13.7006L62.0165 13.7085ZM82.477 15.8101C82.4501 16.3348 82.6161 16.8504 82.9413 17.2521C83.2474 17.6136 83.8204 17.7944 84.6642 17.7944H86.3708C86.5707 17.7964 86.7618 17.8797 86.9036 18.0264C87.0454 18.1732 87.1265 18.3718 87.1297 18.5799V20.5057C87.1265 20.7143 87.0456 20.9134 86.9039 21.061C86.7623 21.2085 86.5711 21.2929 86.3708 21.2962H84.2971C82.5399 21.2962 81.1956 20.8523 80.2613 19.9674C79.3279 19.0835 78.8569 17.7248 78.8492 15.8984V9.62272H76.9843C76.8854 9.62403 76.7873 9.60377 76.6964 9.56323C76.6054 9.52269 76.5236 9.46278 76.4561 9.38735C76.3829 9.31756 76.3249 9.23227 76.2859 9.13721C76.247 9.04214 76.2279 8.93949 76.2302 8.83615V6.90844C76.2289 6.80523 76.2483 6.70287 76.2872 6.60794C76.3261 6.51301 76.3837 6.42762 76.4561 6.35724C76.5242 6.28262 76.6061 6.22325 76.6969 6.18278C76.7878 6.1423 76.8856 6.12158 76.9843 6.12187H78.8368V1.36467C78.8398 1.15693 78.9203 0.958533 79.0612 0.811524C79.2022 0.664515 79.3925 0.580438 79.592 0.577106H81.7219C81.9213 0.580183 82.1116 0.664042 82.2526 0.810891C82.3936 0.957741 82.4741 1.15603 82.477 1.36368V6.12087H86.1096C86.3032 6.13267 86.4854 6.2205 86.6193 6.36665C86.7532 6.5128 86.829 6.7064 86.8313 6.90844V8.83714C86.8284 9.0448 86.7479 9.24308 86.6069 9.38993C86.4659 9.53678 86.2756 9.62064 86.0762 9.62372H82.4437L82.477 15.8101ZM100.884 13.6788L97.8005 5.36012L94.7209 13.6788H100.884ZM99.3422 0.867106C99.4649 0.85779 99.5881 0.875041 99.7041 0.917772C99.8201 0.960503 99.9264 1.02779 100.016 1.11539C100.196 1.33289 100.334 1.58615 100.42 1.86026L107.28 20.3041C107.299 20.3696 107.308 20.4374 107.308 20.5057C107.305 20.714 107.224 20.9129 107.082 21.0604C106.941 21.2078 106.75 21.2924 106.55 21.2962H104.532C104.391 21.3112 104.249 21.297 104.114 21.2544C103.979 21.2118 103.854 21.1416 103.745 21.0479C103.613 20.9096 103.508 20.7452 103.438 20.5643L102.227 17.3276H93.3775L92.1667 20.5643C92.0962 20.7451 91.9918 20.9095 91.8597 21.0479C91.7512 21.1421 91.6257 21.2125 91.4906 21.2552C91.3555 21.2978 91.2135 21.3118 91.0731 21.2962H89.0547C88.8553 21.2916 88.6653 21.2067 88.5246 21.0593C88.384 20.9119 88.3037 20.7135 88.3005 20.5057C88.299 20.4373 88.3086 20.3691 88.3291 20.3041L95.189 1.86026C95.2748 1.58714 95.4131 1.33389 95.5933 1.11539C95.683 1.02771 95.7893 0.960447 95.9053 0.917873C96.0214 0.875299 96.1447 0.858348 96.2674 0.868099H99.3422V0.867106ZM119.29 14.5239C119.346 13.9819 119.346 13.4352 119.29 12.8932C119.181 11.6319 118.805 10.7162 118.171 10.165C117.52 9.6013 116.694 9.30247 115.848 9.32378C115.003 9.29598 114.179 9.59575 113.535 10.165C113.211 10.4743 112.949 10.8475 112.764 11.2629C112.579 11.6783 112.475 12.1278 112.457 12.5853C112.415 12.9538 112.395 13.3242 112.401 13.6956C112.395 14.0671 112.415 14.4375 112.457 14.805C112.506 15.7179 112.892 16.5757 113.535 17.1985C114.171 17.7844 114.997 18.0973 115.848 18.0724C116.694 18.0939 117.52 17.795 118.171 17.2312C118.805 16.6801 119.181 15.7693 119.29 14.5031V14.5239ZM116.694 21.5862C116.172 21.5919 115.651 21.5339 115.141 21.4134C114.725 21.3167 114.319 21.1759 113.93 20.9933C113.621 20.831 113.33 20.6335 113.062 20.4044C112.853 20.2318 112.657 20.0422 112.477 19.8373V26.0504C112.475 26.2593 112.394 26.4589 112.252 26.6066C112.111 26.7543 111.919 26.8384 111.719 26.841H109.592C109.392 26.8379 109.201 26.7536 109.059 26.606C108.917 26.4584 108.836 26.2591 108.833 26.0504V6.90844C108.838 6.70074 108.92 6.50302 109.061 6.35648C109.203 6.20994 109.393 6.1259 109.592 6.12187H111.719C111.918 6.12541 112.109 6.2093 112.25 6.35594C112.392 6.50258 112.473 6.70059 112.477 6.90844V7.5808C112.891 7.10409 113.39 6.71776 113.947 6.44265C114.336 6.25972 114.741 6.11862 115.158 6.02156C115.667 5.90125 116.188 5.84359 116.711 5.84974C117.586 5.8361 118.452 6.02967 119.245 6.41584C119.982 6.77921 120.64 7.29601 121.177 7.93437C121.719 8.58136 122.147 9.32264 122.442 10.1243C122.748 10.949 122.923 11.8208 122.958 12.7045C122.978 12.9945 122.986 13.3351 122.986 13.7264C122.986 14.1177 122.986 14.4584 122.958 14.7474C122.923 15.6314 122.748 16.5035 122.442 17.3286C122.147 18.1302 121.719 18.8715 121.177 19.5185C120.639 20.1561 119.982 20.6725 119.245 21.036C118.446 21.4192 117.574 21.6074 116.694 21.5862ZM135.125 14.5249C135.181 13.9826 135.181 13.4355 135.125 12.8932C135.013 11.6319 134.642 10.7162 134.003 10.165C133.352 9.6001 132.526 9.30111 131.679 9.32378C130.835 9.29608 130.011 9.59583 129.366 10.165C129.042 10.4743 128.78 10.8475 128.595 11.2629C128.41 11.6783 128.306 12.1278 128.289 12.5853C128.248 12.9538 128.229 13.3242 128.233 13.6956C128.229 14.0671 128.248 14.4375 128.289 14.805C128.338 15.7179 128.724 16.5757 129.366 17.1985C130.002 17.7861 130.83 18.0987 131.679 18.0724C132.526 18.0951 133.352 17.7961 134.003 17.2312C134.642 16.6801 135.013 15.7693 135.125 14.5031V14.5249ZM132.518 21.5654C131.996 21.571 131.475 21.513 130.965 21.3926C130.549 21.2949 130.143 21.1538 129.754 20.9715C129.441 20.8159 129.146 20.6244 128.874 20.4004C128.664 20.2275 128.467 20.0375 128.285 19.8323V26.0494C128.286 26.1532 128.266 26.256 128.227 26.3516C128.188 26.4472 128.131 26.5336 128.059 26.6056C127.991 26.6795 127.909 26.7384 127.818 26.7786C127.727 26.8189 127.63 26.8398 127.531 26.84H125.4C125.201 26.8364 125.01 26.7519 124.869 26.6045C124.729 26.4571 124.648 26.2584 124.646 26.0504V6.90844C124.648 6.70048 124.727 6.50146 124.869 6.35432C125.01 6.20717 125.201 6.12368 125.4 6.12187H127.531C127.73 6.1274 127.919 6.21207 128.059 6.35843C128.199 6.50479 128.28 6.70166 128.285 6.90844V7.5808C128.466 7.37622 128.665 7.18553 128.874 7.01272C129.146 6.78926 129.441 6.59659 129.754 6.44166C130.143 6.25975 130.549 6.11901 130.965 6.02156C131.475 5.9015 131.996 5.84383 132.518 5.84974C133.395 5.83621 134.263 6.02975 135.057 6.41584C135.793 6.78132 136.449 7.29776 136.989 7.93437C137.529 8.58138 137.956 9.32274 138.249 10.1243C138.556 10.9486 138.731 11.8206 138.765 12.7045C138.785 12.9945 138.793 13.3351 138.793 13.7264C138.793 14.1177 138.793 14.4584 138.765 14.7474C138.731 15.6316 138.556 16.5038 138.249 17.3286C137.956 18.1301 137.529 18.8714 136.989 19.5185C136.45 20.1544 135.793 20.6706 135.057 21.036C134.263 21.4228 133.395 21.617 132.518 21.6041"
      fill="#2A3037" />
  </g>
</svg>