<svg width="137" height="32" viewBox="0 0 137 32" fill="none" xmlns="http://www.w3.org/2000/svg">
  <g clip-path="url(#clip0_13_49)">
    <path
      d="M36.9056 10.651H50.2736V13.249H45.0176V27.855H42.127V13.249H36.8941V10.651H36.9056ZM49.7024 15.398H52.1734V17.802H52.2195C52.3011 17.462 52.4528 17.134 52.6746 16.819C52.8954 16.503 53.1642 16.199 53.4791 15.945C53.7973 15.6795 54.1503 15.4627 54.5274 15.301C54.9018 15.1435 55.3015 15.061 55.7053 15.058C56.0077 15.058 56.2295 15.07 56.3456 15.083C56.4627 15.095 56.5789 15.119 56.7075 15.131V17.778C56.5181 17.7429 56.3276 17.7146 56.1363 17.693C55.9468 17.669 55.7561 17.6566 55.5651 17.656C55.1226 17.656 54.7021 17.754 54.3066 17.936C53.9103 18.1234 53.5595 18.4013 53.2803 18.749C52.97 19.1454 52.733 19.5984 52.5814 20.085C52.4067 20.619 52.3251 21.225 52.3251 21.918V27.842H49.6909V15.398H49.7024ZM68.816 27.855H66.2288V26.119H66.1827C65.8563 26.749 65.3782 27.247 64.737 27.624C64.0966 28 63.4438 28.194 62.7786 28.194C61.2061 28.194 60.0637 27.794 59.3648 26.981C58.665 26.167 58.3155 24.941 58.3155 23.301V15.398H60.9498V23.035C60.9498 24.127 61.1475 24.905 61.5555 25.354C61.952 25.803 62.5232 26.034 63.2451 26.034C63.8048 26.034 64.2598 25.949 64.6323 25.766C65.0058 25.584 65.3082 25.354 65.5299 25.05C65.7632 24.759 65.9264 24.395 66.031 23.982C66.1366 23.569 66.1827 23.12 66.1827 22.634V15.411H68.817L68.816 27.855ZM73.304 23.86C73.3856 24.662 73.6765 25.22 74.1776 25.548C74.6902 25.864 75.297 26.034 76.0074 26.034C76.2522 26.034 76.5325 26.009 76.8474 25.973C77.1613 25.936 77.4647 25.851 77.7325 25.743C78.0128 25.633 78.2336 25.463 78.4198 25.244C78.5955 25.026 78.6771 24.747 78.6647 24.394C78.6632 24.2315 78.6294 24.071 78.5653 23.9228C78.5011 23.7745 78.4081 23.6418 78.2922 23.533C78.0589 23.302 77.768 23.132 77.4061 22.986C77.0029 22.838 76.59 22.7203 76.1706 22.634C75.705 22.537 75.2394 22.428 74.7603 22.318C74.2799 22.2079 73.8055 22.0703 73.3395 21.906C72.9003 21.7566 72.4868 21.5352 72.1146 21.25C71.7505 20.9796 71.4547 20.6214 71.2525 20.206C71.0317 19.781 70.9261 19.259 70.9261 18.628C70.9261 17.948 71.0893 17.389 71.4042 16.928C71.72 16.471 72.13 16.0935 72.6042 15.823C73.1115 15.5384 73.6582 15.3377 74.2247 15.228C74.8199 15.119 75.3901 15.058 75.9258 15.058C76.544 15.058 77.1382 15.131 77.6979 15.265C78.2415 15.3886 78.7588 15.6147 79.2243 15.932C79.6794 16.236 80.0519 16.637 80.3552 17.122C80.6586 17.608 80.8448 18.202 80.9264 18.895H78.176C78.0474 18.239 77.768 17.79 77.313 17.572C76.8589 17.341 76.3338 17.232 75.751 17.232C75.5288 17.2323 75.3069 17.2484 75.0867 17.28C74.8304 17.317 74.5971 17.377 74.3648 17.462C74.1493 17.5464 73.9542 17.6792 73.7936 17.851C73.6349 18.0333 73.5512 18.2731 73.5603 18.519C73.5603 18.859 73.6765 19.126 73.8982 19.332C74.119 19.538 74.4109 19.708 74.7719 19.854C75.175 20.0022 75.5879 20.1198 76.0074 20.206C76.4739 20.303 76.952 20.412 77.4416 20.522C77.9187 20.631 78.3853 20.777 78.8519 20.934C79.3175 21.092 79.7255 21.311 80.0874 21.59C80.4483 21.87 80.7402 22.21 80.961 22.622C81.1818 23.035 81.2989 23.557 81.2989 24.164C81.2989 24.904 81.1357 25.524 80.8093 26.046C80.4829 26.556 80.0634 26.98 79.5517 27.296C79.0154 27.6237 78.4329 27.8613 77.8256 28C77.2099 28.144 76.5808 28.2175 75.9498 28.219C75.1914 28.219 74.4925 28.134 73.8512 27.952C73.2109 27.77 72.6512 27.502 72.1847 27.15C71.723 26.7936 71.3446 26.3331 71.0778 25.803C70.809 25.269 70.6698 24.625 70.6458 23.885H73.304V23.86ZM81.9987 15.398H83.9917V11.66H86.625V15.4H89.0029V17.451H86.625V24.104C86.625 24.395 86.6375 24.638 86.6605 24.857C86.6835 25.063 86.7421 25.245 86.8237 25.391C86.9121 25.5427 87.0476 25.6584 87.2077 25.719C87.3834 25.792 87.6042 25.829 87.9075 25.829C88.0938 25.829 88.28 25.829 88.4672 25.816C88.6535 25.804 88.8397 25.779 89.0259 25.731V27.856C88.7351 27.892 88.4432 27.916 88.1754 27.953C87.8931 27.9875 87.609 28.0035 87.3248 28.001C86.6259 28.001 86.0663 27.928 85.6467 27.795C85.2272 27.661 84.8883 27.455 84.656 27.188C84.4112 26.921 84.2595 26.593 84.1664 26.192C84.0753 25.7405 84.0246 25.2813 84.0147 24.82V17.475H82.0218V15.399H81.9987V15.398ZM90.8682 15.398H93.3623V17.086H93.4083C93.7818 16.357 94.2944 15.848 94.9587 15.532C95.6358 15.2125 96.3716 15.0507 97.1149 15.058C98.0586 15.058 98.8746 15.228 99.5744 15.58C100.273 15.92 100.856 16.394 101.323 17C101.788 17.608 102.126 18.312 102.359 19.113C102.593 19.915 102.709 20.777 102.709 21.687C102.709 22.525 102.604 23.338 102.395 24.115C102.202 24.8641 101.882 25.5712 101.45 26.203C101.029 26.8079 100.478 27.3026 99.8423 27.648C99.1895 28.012 98.432 28.195 97.5459 28.195C97.1619 28.195 96.777 28.158 96.392 28.085C96.0114 28.012 95.64 27.8939 95.2851 27.733C94.9319 27.5767 94.6021 27.3682 94.3059 27.114C94.0119 26.865 93.7564 26.5702 93.5485 26.24H93.5015V32.456H90.8682V15.398ZM100.076 21.638C100.076 21.08 100.005 20.534 99.8653 20C99.7369 19.4955 99.5241 19.0185 99.2365 18.591C98.9643 18.1877 98.6099 17.8521 98.1987 17.608C97.76 17.3562 97.2663 17.2267 96.7654 17.232C95.6576 17.232 94.8186 17.632 94.2598 18.433C93.7002 19.235 93.4198 20.303 93.4198 21.639C93.4198 22.269 93.4899 22.853 93.6416 23.387C93.7933 23.921 94.0026 24.382 94.3059 24.771C94.5876 25.1506 94.9458 25.4613 95.3552 25.681C95.7632 25.912 96.2403 26.021 96.777 26.021C97.3827 26.021 97.8839 25.888 98.3034 25.633C98.7113 25.3832 99.0616 25.0432 99.3296 24.637C99.5975 24.224 99.7952 23.763 99.9123 23.241C100.02 22.7143 100.074 22.1765 100.076 21.638ZM104.726 10.651H107.36V13.249H104.726V10.651ZM104.726 15.398H107.36V27.855H104.726V15.398ZM109.714 10.651H112.348V27.855H109.714V10.65V10.651ZM120.425 28.195C119.469 28.195 118.618 28.025 117.872 27.697C117.156 27.3847 116.509 26.9217 115.972 26.337C115.447 25.7364 115.047 25.0298 114.795 24.261C114.518 23.4088 114.38 22.514 114.387 21.614C114.387 20.667 114.527 19.794 114.795 18.992C115.047 18.2233 115.447 17.5166 115.972 16.916C116.486 16.333 117.126 15.884 117.872 15.556C118.618 15.228 119.469 15.058 120.425 15.058C121.381 15.058 122.231 15.228 122.977 15.556C123.694 15.8684 124.34 16.3314 124.877 16.916C125.402 17.5166 125.803 18.2233 126.054 18.992C126.322 19.793 126.462 20.667 126.462 21.614C126.47 22.514 126.332 23.4088 126.054 24.261C125.803 25.0298 125.402 25.7364 124.877 26.337C124.364 26.92 123.723 27.369 122.977 27.697C122.231 28.025 121.381 28.195 120.425 28.195ZM120.425 26.021C121.007 26.021 121.52 25.888 121.952 25.633C122.373 25.3836 122.735 25.0392 123.012 24.625C123.292 24.212 123.49 23.739 123.63 23.217C123.76 22.6934 123.826 22.1549 123.828 21.614C123.825 21.0776 123.759 20.5435 123.63 20.024C123.511 19.5185 123.301 19.0408 123.012 18.616C122.735 18.2054 122.373 17.865 121.952 17.62C121.52 17.365 121.007 17.232 120.425 17.232C119.842 17.232 119.329 17.365 118.898 17.62C118.48 17.8686 118.118 18.2084 117.837 18.616C117.553 19.0438 117.344 19.5204 117.219 20.024C117.091 20.5435 117.024 21.0776 117.021 21.614C117.021 22.161 117.092 22.694 117.219 23.217C117.348 23.739 117.558 24.212 117.837 24.625C118.117 25.038 118.467 25.378 118.898 25.633C119.329 25.9 119.842 26.021 120.425 26.021ZM127.231 15.398H129.224V11.66H131.858V15.4H134.236V17.451H131.858V24.104C131.858 24.395 131.87 24.638 131.893 24.857C131.912 25.0447 131.968 25.2263 132.056 25.391C132.145 25.5429 132.281 25.6586 132.441 25.719C132.616 25.792 132.837 25.829 133.141 25.829C133.327 25.829 133.513 25.829 133.7 25.816C133.887 25.804 134.073 25.779 134.259 25.731V27.856C133.968 27.892 133.676 27.916 133.409 27.953C133.126 27.9875 132.842 28.0035 132.558 28.001C131.858 28.001 131.299 27.928 130.879 27.795C130.46 27.661 130.122 27.455 129.888 27.188C129.644 26.921 129.493 26.593 129.399 26.192C129.308 25.7405 129.258 25.2812 129.248 24.82V17.475H127.255V15.399H127.231V15.398Z"
      fill="#191919" />
    <path
      d="M33.8259 10.651H21.752L18.0234 -1.31897L14.2813 10.651L2.20641 10.64L11.985 18.046L8.24385 30.004L18.0224 22.611L27.7885 30.004L24.0589 18.046L33.8259 10.652V10.651Z"
      fill="#00B67A" />
    <path d="M24.9008 20.752L24.0608 18.045L18.0234 22.61L24.9008 20.752Z" fill="#005128" />
  </g>
  <defs>
    <clipPath id="clip0_13_49">
      <rect width="136.32" height="32" fill="white" transform="translate(0.200012)" />
    </clipPath>
  </defs>
</svg>