<svg width="137" height="24" viewBox="0 0 137 24" fill="none" xmlns="http://www.w3.org/2000/svg">
  <g clip-path="url(#clip0_13_57)">
    <path
      d="M10.9719 0.0727539C11.075 0.109688 11.1717 0.163717 11.2582 0.232754L15.168 4.30548C15.3227 4.46824 15.4103 4.68739 15.4124 4.91639V23.6946C15.4144 23.7324 15.4087 23.7702 15.3958 23.8056C15.3828 23.8409 15.3628 23.873 15.3371 23.8998C15.3114 23.9266 15.2806 23.9474 15.2466 23.9609C15.2127 23.9744 15.1764 23.9803 15.1401 23.9782C15.1077 23.9796 15.0754 23.9738 15.0454 23.9612C15.0153 23.9487 14.9881 23.9297 14.9655 23.9055L11.2582 20.0728C11.1035 19.91 11.0159 19.6908 11.0138 19.4618V0.0727539H10.9719Z"
      fill="url(#paint0_linear_13_57)" />
    <path
      d="M21.7309 0.261845C21.8017 0.18514 21.8843 0.121239 21.9753 0.0727539V19.4618C21.9749 19.576 21.9524 19.689 21.9092 19.7939C21.866 19.8989 21.803 19.9937 21.7239 20.0728L18.0445 23.9055C18.0197 23.9325 17.9899 23.9541 17.9569 23.9688C17.9239 23.9835 17.8884 23.9911 17.8525 23.9911C17.8166 23.9911 17.7811 23.9835 17.7481 23.9688C17.7151 23.9541 17.6853 23.9325 17.6605 23.9055C17.6151 23.8539 17.5901 23.7864 17.5907 23.7164V4.93821C17.5907 4.82824 17.6132 4.71952 17.6565 4.61923C17.6998 4.51895 17.7631 4.42936 17.842 4.35639L21.7309 0.261845Z"
      fill="url(#paint1_linear_13_57)" />
    <path
      d="M28.8175 15.1782L28.5452 14.8945V10.9091H24.8239C24.7855 10.9082 24.7474 10.9162 24.7124 10.9325C24.6774 10.9489 24.6463 10.9732 24.6214 11.0036L21.9543 13.7818L30.4931 22.6836C30.5708 22.7614 30.6628 22.8221 30.7636 22.8621C30.8644 22.9021 30.9718 22.9206 31.0796 22.9163H35.5759C35.6116 22.9174 35.6471 22.9107 35.6802 22.8968C35.7133 22.8828 35.7433 22.8618 35.7682 22.8351C35.7932 22.8085 35.8125 22.7767 35.8251 22.7419C35.8376 22.707 35.8431 22.6699 35.8412 22.6327C35.8418 22.564 35.8196 22.4972 35.7783 22.4436L28.8175 15.1782Z"
      fill="url(#paint2_linear_13_57)" />
    <path
      d="M22.2895 0C22.0777 0.00850972 21.8774 0.102389 21.7309 0.261818L17.7932 4.36364C17.7348 4.43841 17.6834 4.51877 17.6396 4.60364H28.5452V14.8727L28.8175 15.1564L32.7063 11.1273C32.7842 11.0476 32.8459 10.9525 32.8879 10.8476C32.9298 10.7427 32.9512 10.63 32.9507 10.5164V4.93818C32.9399 4.72187 32.8529 4.5173 32.7063 4.36364L28.7965 0.261818C28.7206 0.17942 28.6296 0.113775 28.5288 0.0687945C28.4281 0.023814 28.3197 0.00041794 28.21 0L22.2895 0Z"
      fill="url(#paint3_linear_13_57)" />
    <path
      d="M11.2023 0.261807C11.1264 0.179409 11.0354 0.113764 10.9346 0.0687836C10.8339 0.0238031 10.7255 0.00040698 10.6159 -1.09602e-05H0.359563C0.323275 -0.00211592 0.286969 0.00377892 0.253018 0.0172884C0.219066 0.0307978 0.188234 0.0516177 0.162534 0.0783877C0.136835 0.105158 0.116848 0.137275 0.103879 0.172641C0.09091 0.208007 0.085251 0.245826 0.0872717 0.283625C0.0868885 0.323521 0.0948028 0.363031 0.110471 0.399438C0.126138 0.435846 0.149188 0.468288 0.178035 0.494535L3.85745 4.36363C3.93334 4.44602 4.02438 4.51167 4.12513 4.55665C4.22589 4.60163 4.33431 4.62503 4.44393 4.62544H14.8399C14.9831 4.62736 15.1198 4.68797 15.2204 4.79414C15.3211 4.90032 15.3775 5.04352 15.3775 5.19272V4.97453C15.3754 4.74553 15.2878 4.52638 15.1331 4.36363L11.2023 0.261807Z"
      fill="url(#paint4_linear_13_57)" />
    <path
      d="M21.7309 0.261818C21.8774 0.102389 22.0777 0.00850972 22.2895 0L28.21 0C28.3197 0.00041794 28.4281 0.023814 28.5288 0.0687945C28.6296 0.113775 28.7206 0.17942 28.7965 0.261818L32.7063 4.36364C32.861 4.52639 32.9487 4.74555 32.9507 4.97455V5.19273C32.9507 5.04353 32.8943 4.90033 32.7937 4.79415C32.693 4.68798 32.5563 4.62737 32.4131 4.62546H18.1353C17.9914 4.62734 17.8539 4.68771 17.7522 4.79369C17.6505 4.89967 17.5925 5.04286 17.5907 5.19273V4.97455C17.5911 4.86036 17.6136 4.74743 17.6567 4.64247C17.6999 4.53752 17.7629 4.44269 17.842 4.36364L21.7309 0.261818Z"
      fill="url(#paint5_linear_13_57)" />
    <path
      d="M32.9507 10.3055C32.9489 10.4541 32.8919 10.5962 32.7917 10.702C32.6914 10.8078 32.5557 10.869 32.4131 10.8728H25.0473C25.0126 10.8745 24.9799 10.8896 24.9554 10.9152C24.9308 10.9407 24.9163 10.9749 24.9146 11.0109C24.9141 11.029 24.9176 11.047 24.9248 11.0634C24.9321 11.0798 24.943 11.0942 24.9565 11.1055L28.8454 15.1564L32.7273 11.1273C32.8074 11.049 32.871 10.9544 32.9143 10.8492C32.9575 10.7441 32.9794 10.6308 32.9786 10.5164V10.3055H32.9507Z"
      fill="url(#paint6_linear_13_57)" />
    <path
      d="M135.618 15.3382C135.618 13.4109 134.557 12.6837 131.96 12C130.396 11.6 129.991 11.2727 129.991 10.7055C129.991 10.1382 130.487 9.76729 131.506 9.76729C132.628 9.80657 133.726 10.1205 134.711 10.6837L135.032 8.61093C133.916 8.12188 132.717 7.87444 131.506 7.88365C129.153 7.88365 127.778 9.12729 127.778 10.8727C127.778 12.7564 128.797 13.4618 131.269 14.0946C132.965 14.5164 133.44 14.8218 133.44 15.5491C133.44 16.2764 132.784 16.6546 131.632 16.6546C130.293 16.6183 128.988 16.2063 127.855 15.4618L127.54 17.5564C128.764 18.1849 130.107 18.5204 131.471 18.5382C134.194 18.5382 135.618 17.3382 135.618 15.3382ZM126.381 18.3273V8.00002H123.987V14.9891C123.357 15.7395 122.475 16.2104 121.522 16.3055C120.552 16.3055 120.126 15.6946 120.126 14.7782V8.00002H117.731V15.4327C117.731 17.3382 118.743 18.4946 120.684 18.4946C121.99 18.4229 123.22 17.832 124.119 16.8437L124.461 18.2982L126.381 18.3273ZM116.307 18.3273V8.00002H113.933V18.3273H116.307ZM115.127 3.50547C115.403 3.50547 115.673 3.59078 115.902 3.75061C116.132 3.91043 116.311 4.1376 116.417 4.40339C116.522 4.66917 116.55 4.96163 116.496 5.24378C116.442 5.52594 116.309 5.78511 116.114 5.98854C115.919 6.19196 115.67 6.33049 115.399 6.38661C115.128 6.44274 114.847 6.41393 114.592 6.30384C114.337 6.19375 114.119 6.00732 113.966 5.76812C113.812 5.52892 113.73 5.2477 113.73 4.96002C113.73 4.57425 113.877 4.20428 114.139 3.9315C114.401 3.65872 114.756 3.50547 115.127 3.50547ZM110.135 14.8946C109.864 15.3165 109.503 15.6674 109.08 15.9197C108.658 16.1721 108.184 16.3191 107.698 16.3491C106.497 16.3491 105.604 15.3818 105.604 13.36C105.604 11.0982 106.644 9.99274 108.047 9.99274C108.769 9.96893 109.486 10.1208 110.142 10.4364L110.135 14.8946ZM112.495 18.3273V3.01093L110.121 3.43274V8.40002C109.341 8.1342 108.526 7.99918 107.705 8.00002C105.31 8.00002 103.188 9.69456 103.188 13.5055C103.188 16.9382 104.926 18.5382 107.098 18.5382C107.71 18.5302 108.314 18.3805 108.864 18.1001C109.415 17.8196 109.899 17.4153 110.281 16.9164L110.484 18.3273H112.495ZM99.8226 15.5055C99.1468 16.2039 98.2461 16.616 97.2951 16.6618C96.4783 16.6618 95.9616 16.1891 95.9616 15.4618C95.9616 14.4727 96.7087 13.6 99.8435 13.2218V15.5055H99.8226ZM102.196 18.3273V11.3164C102.196 8.89456 100.933 7.90547 98.3075 7.90547C96.9334 7.90926 95.5729 8.18826 94.2999 8.72729L94.5932 10.7055C95.6854 10.2078 96.8578 9.929 98.0492 9.88365C99.1802 9.88365 99.8575 10.3055 99.8575 11.4109V11.7382C95.6684 12.1673 93.6227 13.1927 93.6227 15.6946C93.6227 17.4618 94.8026 18.5164 96.562 18.5164C97.2069 18.5157 97.8451 18.3802 98.4387 18.1178C99.0324 17.8555 99.5694 17.4717 100.018 16.9891L100.241 18.3055H102.21L102.196 18.3273ZM93.2038 17.9564L89.4546 12.5673C90.2715 12.3565 90.9943 11.8603 91.5025 11.1615C92.0107 10.4627 92.2736 9.60353 92.2473 8.72729C92.2473 6.09456 90.418 4.58911 87.36 4.58911H83.1709V18.3273H85.6355V13.0109H86.8294L90.5367 18.4437L93.2038 17.9564ZM89.8106 8.87274C89.8106 10.3273 88.7703 11.0546 87.0947 11.0546H85.6983V6.69093H87.2343C88.9239 6.72729 89.8106 7.50547 89.8106 8.87274ZM81.991 18.3273L81.6978 16.2837C81.4137 16.3304 81.1266 16.3547 80.839 16.3564C79.8685 16.3564 79.4845 15.9055 79.4845 15.0618V10.0218H81.991L81.586 8.00002H79.4915V4.44365L77.1456 4.87274V8.00002H75.5398V10H77.1456V15.44C77.1456 17.7455 78.4512 18.4509 80.4201 18.4509C80.9466 18.4785 81.4744 18.437 81.991 18.3273ZM75.0092 15.3382C75.0092 13.4109 73.9479 12.6837 71.3507 12C69.7868 11.6 69.3818 11.2727 69.3818 10.7055C69.3818 10.1382 69.8775 9.76729 70.8969 9.76729C72.0193 9.80657 73.1171 10.1205 74.1015 10.6837L74.4436 8.61093C73.3279 8.12188 72.1283 7.87444 70.9178 7.88365C68.5719 7.88365 67.1895 9.12729 67.1895 10.8727C67.1895 12.7564 68.2089 13.4618 70.6455 14.0946C72.3421 14.5164 72.8169 14.8218 72.8169 15.5491C72.8169 16.2764 72.1606 16.6546 71.0086 16.6546C69.7001 16.6109 68.4279 16.196 67.3292 15.4546L66.9871 17.5491C68.2175 18.1794 69.5677 18.5149 70.9388 18.5309C73.6128 18.5382 75.0371 17.3382 75.0371 15.3382H75.0092ZM65.9328 18.3273V8.00002H63.538V14.9891C62.9088 15.7407 62.0266 16.2119 61.0735 16.3055C60.103 16.3055 59.6771 15.6946 59.6771 14.7782V8.00002H57.3382V15.4327C57.3382 17.3382 58.3575 18.4946 60.2985 18.4946C61.6035 18.42 62.8321 17.8296 63.7335 16.8437L64.0687 18.2982L65.9328 18.3273ZM56.1583 10.3273L55.6207 7.90547C54.9712 8.01542 54.3542 8.27741 53.8161 8.67171C53.2779 9.066 52.8326 9.58234 52.5138 10.1818L52.0599 8.00002H50.2796V18.3273H52.6045V12.4437C53.0014 11.8255 53.5297 11.3111 54.1485 10.9402C54.7672 10.5694 55.4598 10.3522 56.1722 10.3055L56.1583 10.3273Z"
      fill="url(#paint7_linear_13_57)" />
    <path
      d="M51.7667 6.87275L51.2291 4.58911H39.5485V6.87275H43.954V18.3273H46.4186V6.87275H51.7667Z"
      fill="url(#paint8_linear_13_57)" />
  </g>
  <defs>
    <linearGradient id="paint0_linear_13_57" x1="13.1683" y1="24.1794" x2="13.1683" y2="0.0349351"
      gradientUnits="userSpaceOnUse">
      <stop offset="0.71" stop-color="#116BF2" />
      <stop offset="1" stop-color="#1E50E5" />
    </linearGradient>
    <linearGradient id="paint1_linear_13_57" x1="19.7833" y1="24.3462" x2="19.7833" y2="0.426207"
      gradientUnits="userSpaceOnUse">
      <stop offset="0.71" stop-color="#116BF2" />
      <stop offset="1" stop-color="#1E50E5" />
    </linearGradient>
    <linearGradient id="paint2_linear_13_57" x1="24.3233" y1="13.2646" x2="33.7312" y2="22.3018"
      gradientUnits="userSpaceOnUse">
      <stop offset="0.41" stop-color="#116BF2" />
      <stop offset="1" stop-color="#185DEC" />
    </linearGradient>
    <linearGradient id="paint3_linear_13_57" x1="25.3233" y1="14.759" x2="25.3233" y2="-0.548945"
      gradientUnits="userSpaceOnUse">
      <stop offset="0.58" stop-color="#116BF2" />
      <stop offset="1" stop-color="#1E50E5" />
    </linearGradient>
    <linearGradient id="paint4_linear_13_57" x1="10.4979" y1="1.92224" x2="8.22249" y2="4.33194"
      gradientUnits="userSpaceOnUse">
      <stop offset="0.03" stop-color="#59C5FF" />
      <stop offset="0.99" stop-color="#21B1FF" />
    </linearGradient>
    <linearGradient id="paint5_linear_13_57" x1="21.2911" y1="2.07695" x2="23.9241" y2="4.51115"
      gradientUnits="userSpaceOnUse">
      <stop offset="0.04" stop-color="#59C5FF" />
      <stop offset="0.99" stop-color="#21B1FF" />
    </linearGradient>
    <linearGradient id="paint6_linear_13_57" x1="31.0687" y1="13.1522" x2="28.792" y2="10.9333"
      gradientUnits="userSpaceOnUse">
      <stop offset="0.04" stop-color="#57C4FF" />
      <stop offset="0.99" stop-color="#21B1FF" />
    </linearGradient>
    <linearGradient id="paint7_linear_13_57" x1="49.9692" y1="11.0109" x2="135.308" y2="11.0109"
      gradientUnits="userSpaceOnUse">
      <stop offset="0.71" stop-color="#116BF2" />
      <stop offset="1" stop-color="#1E50E5" />
    </linearGradient>
    <linearGradient id="paint8_linear_13_57" x1="39.5939" y1="11.7638" x2="51.8121" y2="11.7638"
      gradientUnits="userSpaceOnUse">
      <stop offset="0.71" stop-color="#116BF2" />
      <stop offset="1" stop-color="#1E50E5" />
    </linearGradient>
    <clipPath id="clip0_13_57">
      <rect width="136.32" height="24" fill="white" />
    </clipPath>
  </defs>
</svg>